<svg xmlns="http://www.w3.org/2000/svg" viewBox="0 0 144.05 144.05"><defs><style>.cls-1{fill:#fff;}</style></defs><g id="Camada_2" data-name="Camada 2"><g id="Camada_1-2" data-name="Camada 1"><path class="cls-1" d="M118.45,0H25.6A25.6,25.6,0,0,0,0,25.6v92.85a25.6,25.6,0,0,0,25.6,25.6h92.85a25.61,25.61,0,0,0,25.6-25.6V25.6A25.6,25.6,0,0,0,118.45,0ZM98,41.94H96.75l-5.26,0c-1.32,0-2.64,0-3.95,0-4.24.15-7.36,1.74-7.58,7-.13,3.82-.23,12.24-.24,12.68l8.63,0,5.6,0h3.43c-.86,6.14-1.65,12-2.5,18H79.73l-.34,44.89H60.78l.34-45H45.9L46,61.71h15.3V60.37c0-3.6,0-7.2.11-10.8A46.56,46.56,0,0,1,62,42.72a20.36,20.36,0,0,1,8.16-13.35A23.42,23.42,0,0,1,83.6,25.2l1.49,0c2.65,0,5.33.15,8,.27,1.73.07,3.45.32,5.08.49Z"/></g></g></svg>