<svg xmlns="http://www.w3.org/2000/svg" viewBox="0 0 144.05 144.05"><defs><style>.cls-1{fill:#fff;}</style></defs><g id="Camada_2" data-name="Camada 2"><g id="Camada_1-2" data-name="Camada 1"><path class="cls-1" d="M73.33,57.72H73.2A14.72,14.72,0,0,0,58.5,72.16,14.45,14.45,0,0,0,72.83,86.89H73a14.72,14.72,0,0,0,14.7-14.44A14.43,14.43,0,0,0,73.33,57.72Z"/><path class="cls-1" d="M95.46,37.13c-3.79-.57-12.92-.83-22-.83-8.76,0-17.47.24-21.31.66-7.67.88-12.82,5.61-14,13.24-1.26,8.08-1.24,38.31-.3,44.39,1,6.32,4.54,10.66,10.85,12.43,3.41,1,13.63,1.3,23.65,1.3,9.23,0,18.28-.3,21.69-.67,7.74-.84,12.86-5.61,14.08-13.31s1.27-35.95.55-43.19C107.84,43.42,103.11,38.33,95.46,37.13ZM72.91,94.87A22.33,22.33,0,0,1,50.55,72.3,22.73,22.73,0,0,1,73.29,49.77,22.35,22.35,0,0,1,95.65,72.34,22.77,22.77,0,0,1,72.91,94.87ZM96.67,54.19a5.28,5.28,0,0,1,0-10.56h.06a5.23,5.23,0,0,1,5.22,5.3A5.33,5.33,0,0,1,96.67,54.19Z"/><path class="cls-1" d="M118.45,0H25.6A25.6,25.6,0,0,0,0,25.6v92.85a25.6,25.6,0,0,0,25.6,25.6h92.85a25.61,25.61,0,0,0,25.6-25.6V25.6A25.6,25.6,0,0,0,118.45,0Zm-2.87,97.69c-2.72,10-9.27,16-19.41,17.59-3.8.61-14,1-24.26,1-10.47,0-20.93-.39-24.44-1.3-10-2.58-15.93-9.07-17.51-19.17-1.18-7.42-1.31-41.89.84-49.37C33.59,36.67,40.1,31,50,29.33c4.47-.74,13.21-1,22-1,8.2,0,16.49.22,21.47.49a24.21,24.21,0,0,1,16,6.57,23.12,23.12,0,0,1,7,15C117.2,57.33,117.62,90,115.58,97.69Z"/></g></g></svg>