<svg xmlns="http://www.w3.org/2000/svg" viewBox="0 0 144.05 144.05"><defs><style>.cls-1{fill:#fff;}</style></defs><g id="Camada_2" data-name="Camada 2"><g id="Camada_1-2" data-name="Camada 1"><path class="cls-1" d="M118.45,0H25.6A25.6,25.6,0,0,0,0,25.6v92.85a25.6,25.6,0,0,0,25.6,25.6h92.85a25.61,25.61,0,0,0,25.6-25.6V25.6A25.6,25.6,0,0,0,118.45,0ZM51.65,106.42H35l.41-53.71h16.7Zm-7.9-61a9.61,9.61,0,0,1-9.6-9.68,9.77,9.77,0,0,1,9.75-9.67,9.58,9.58,0,0,1,9.6,9.67A9.76,9.76,0,0,1,43.75,45.4Zm70.41,61H97.49l.2-26.1c0-6.25,0-14.26-8.58-14.26s-10,6.78-10.1,13.8l-.2,26.56H62.11l.4-53.71h16l-.05,7.34h.24c2.26-4.2,7.73-8.65,15.85-8.65,16.92,0,19.94,11.09,19.83,25.57Z"/></g></g></svg>